<?xml version="1.0" encoding="UTF-8" standalone="no"?>
<!-- Created with Inkscape (http://www.inkscape.org/) -->

<svg
   xmlns:dc="http://purl.org/dc/elements/1.1/"
   xmlns:cc="http://creativecommons.org/ns#"
   xmlns:rdf="http://www.w3.org/1999/02/22-rdf-syntax-ns#"
   xmlns:svg="http://www.w3.org/2000/svg"
   xmlns="http://www.w3.org/2000/svg"
   xmlns:sodipodi="http://sodipodi.sourceforge.net/DTD/sodipodi-0.dtd"
   xmlns:inkscape="http://www.inkscape.org/namespaces/inkscape"
   id="svg2"
   version="1.1"
   inkscape:version="0.91 r"
   xml:space="preserve"
   width="96"
   height="96"
   viewBox="0 0 96 96"
   sodipodi:docname="radio2.svg"><metadata
     id="metadata8"><rdf:RDF><cc:Work
         rdf:about=""><dc:format>image/svg+xml</dc:format><dc:type
           rdf:resource="http://purl.org/dc/dcmitype/StillImage" /><dc:title></dc:title></cc:Work></rdf:RDF></metadata><defs
     id="defs6"><clipPath
       clipPathUnits="userSpaceOnUse"
       id="clipPath24"><path
         d="M 0,432 576,432 576,0 0,0 0,432 Z"
         id="path26"
         inkscape:connector-curvature="0" /></clipPath><clipPath
       clipPathUnits="userSpaceOnUse"
       id="clipPath32"><path
         d="m 455,211 20,0 0,-20 -20,0 0,20 z"
         id="path34"
         inkscape:connector-curvature="0" /></clipPath><clipPath
       clipPathUnits="userSpaceOnUse"
       id="clipPath48"><path
         d="m 458,208 11,0 0,-13 -11,0 0,13 z"
         id="path50"
         inkscape:connector-curvature="0" /></clipPath><clipPath
       clipPathUnits="userSpaceOnUse"
       id="clipPath64"><path
         d="M 0,432 576,432 576,0 0,0 0,432 Z"
         id="path66"
         inkscape:connector-curvature="0" /></clipPath><clipPath
       clipPathUnits="userSpaceOnUse"
       id="clipPath72"><path
         d="m 455,221 50,0 0,-2 -50,0 0,2 z"
         id="path74"
         inkscape:connector-curvature="0" /></clipPath><clipPath
       clipPathUnits="userSpaceOnUse"
       id="clipPath90"><path
         d="M 0,432 576,432 576,0 0,0 0,432 Z"
         id="path92"
         inkscape:connector-curvature="0" /></clipPath><clipPath
       clipPathUnits="userSpaceOnUse"
       id="clipPath98"><path
         d="m 451,225 31,0 0,-19 -31,0 0,19 z"
         id="path100"
         inkscape:connector-curvature="0" /></clipPath><clipPath
       clipPathUnits="userSpaceOnUse"
       id="clipPath114"><path
         d="m 451,207 58,0 0,-21 -58,0 0,21 z"
         id="path116"
         inkscape:connector-curvature="0" /></clipPath><clipPath
       clipPathUnits="userSpaceOnUse"
       id="clipPath132"><path
         d="M 0,432 576,432 576,0 0,0 0,432 Z"
         id="path134"
         inkscape:connector-curvature="0" /></clipPath><clipPath
       clipPathUnits="userSpaceOnUse"
       id="clipPath152"><path
         d="m 492.333,203.667 11.679,0 0,-11.679 -11.679,0 0,11.679 z"
         id="path154"
         inkscape:connector-curvature="0" /></clipPath><clipPath
       clipPathUnits="userSpaceOnUse"
       id="clipPath168"><path
         d="m 492.333,202.934 11.653,0 0,-10.25 -11.653,0 0,10.25 z"
         id="path170"
         inkscape:connector-curvature="0" /></clipPath><clipPath
       clipPathUnits="userSpaceOnUse"
       id="clipPath184"><path
         d="m 491.988,204.012 12.024,0 0,-12.023 -12.024,0 0,12.023 z"
         id="path186"
         inkscape:connector-curvature="0" /></clipPath><clipPath
       clipPathUnits="userSpaceOnUse"
       id="clipPath218"><path
         d="M 0,432 576,432 576,0 0,0 0,432 Z"
         id="path220"
         inkscape:connector-curvature="0" /></clipPath><clipPath
       clipPathUnits="userSpaceOnUse"
       id="clipPath238"><path
         d="m 355.103,237.631 56.897,0 0,-44.631 -56.897,0 0,44.631 z"
         id="path240"
         inkscape:connector-curvature="0" /></clipPath><clipPath
       clipPathUnits="userSpaceOnUse"
       id="clipPath254"><path
         d="m 355,245 49,0 0,-58 -49,0 0,58 z"
         id="path256"
         inkscape:connector-curvature="0" /></clipPath><clipPath
       clipPathUnits="userSpaceOnUse"
       id="clipPath274"><path
         d="M 0,432 576,432 576,0 0,0 0,432 Z"
         id="path276"
         inkscape:connector-curvature="0" /></clipPath><clipPath
       clipPathUnits="userSpaceOnUse"
       id="clipPath290"><path
         d="m 281,222 8,0 0,-29 -8,0 0,29 z"
         id="path292"
         inkscape:connector-curvature="0" /></clipPath><clipPath
       clipPathUnits="userSpaceOnUse"
       id="clipPath316"><path
         d="M 0,432 576,432 576,0 0,0 0,432 Z"
         id="path318"
         inkscape:connector-curvature="0" /></clipPath><clipPath
       clipPathUnits="userSpaceOnUse"
       id="clipPath324"><path
         d="m 164,234 56,0 0,-36 -56,0 0,36 z"
         id="path326"
         inkscape:connector-curvature="0" /></clipPath><clipPath
       clipPathUnits="userSpaceOnUse"
       id="clipPath344"><path
         d="m 167.346,230.654 29.308,0 0,-29.307 -29.308,0 0,29.307 z"
         id="path346"
         inkscape:connector-curvature="0" /></clipPath><clipPath
       clipPathUnits="userSpaceOnUse"
       id="clipPath360"><path
         d="m 170.344,228 12.656,0 0,-10.344 -12.656,0 0,10.344 z"
         id="path362"
         inkscape:connector-curvature="0" /></clipPath><clipPath
       clipPathUnits="userSpaceOnUse"
       id="clipPath380"><path
         d="m 163,235 28,0 0,-13 -28,0 0,13 z"
         id="path382"
         inkscape:connector-curvature="0" /></clipPath><clipPath
       clipPathUnits="userSpaceOnUse"
       id="clipPath396"><path
         d="m 163,218 58,0 0,-21 -58,0 0,21 z"
         id="path398"
         inkscape:connector-curvature="0" /></clipPath><clipPath
       clipPathUnits="userSpaceOnUse"
       id="clipPath412"><path
         d="m 171.21,226.79 27.79,0 0,-27.79 -27.79,0 0,27.79 z"
         id="path414"
         inkscape:connector-curvature="0" /></clipPath><clipPath
       clipPathUnits="userSpaceOnUse"
       id="clipPath436"><path
         d="M 0,432 576,432 576,0 0,0 0,432 Z"
         id="path438"
         inkscape:connector-curvature="0" /></clipPath><clipPath
       clipPathUnits="userSpaceOnUse"
       id="clipPath448"><path
         d="m 67,208 58,0 0,-16 -58,0 0,16 z"
         id="path450"
         inkscape:connector-curvature="0" /></clipPath><clipPath
       clipPathUnits="userSpaceOnUse"
       id="clipPath464"><path
         d="m 67,224 21,0 0,-16 -21,0 0,16 z"
         id="path466"
         inkscape:connector-curvature="0" /></clipPath><clipPath
       clipPathUnits="userSpaceOnUse"
       id="clipPath484"><path
         d="m 99.0088,207 21.9722,0 0,-10.985 -21.9722,0 0,10.985 z"
         id="path486"
         inkscape:connector-curvature="0" /></clipPath><clipPath
       clipPathUnits="userSpaceOnUse"
       id="clipPath500"><path
         d="m 97.0146,219.985 21.9764,0 0,-21.976 -21.9764,0 0,21.976 z"
         id="path502"
         inkscape:connector-curvature="0" /></clipPath><clipPath
       clipPathUnits="userSpaceOnUse"
       id="clipPath518"><path
         d="m 106,227 15,0 0,-2 -15,0 0,2 z"
         id="path520"
         inkscape:connector-curvature="0" /></clipPath><clipPath
       clipPathUnits="userSpaceOnUse"
       id="clipPath544"><path
         d="m 74,219 5.0044,0 0,-18.973 -5.0044,0 0,18.973 z"
         id="path546"
         inkscape:connector-curvature="0" /></clipPath><clipPath
       clipPathUnits="userSpaceOnUse"
       id="clipPath560"><path
         d="m 76.9956,216.005 5.0044,0 0,-19.005 -5.0044,0 0,19.005 z"
         id="path562"
         inkscape:connector-curvature="0" /></clipPath><clipPath
       clipPathUnits="userSpaceOnUse"
       id="clipPath132-2"><path
         d="M 0,432 576,432 576,0 0,0 0,432 Z"
         id="path134-0"
         inkscape:connector-curvature="0" /></clipPath><clipPath
       clipPathUnits="userSpaceOnUse"
       id="clipPath152-2"><path
         d="m 492.333,203.667 11.679,0 0,-11.679 -11.679,0 0,11.679 z"
         id="path154-3"
         inkscape:connector-curvature="0" /></clipPath><clipPath
       clipPathUnits="userSpaceOnUse"
       id="clipPath168-7"><path
         d="m 492.333,202.934 11.653,0 0,-10.25 -11.653,0 0,10.25 z"
         id="path170-5"
         inkscape:connector-curvature="0" /></clipPath><clipPath
       clipPathUnits="userSpaceOnUse"
       id="clipPath184-9"><path
         d="m 491.988,204.012 12.024,0 0,-12.023 -12.024,0 0,12.023 z"
         id="path186-2"
         inkscape:connector-curvature="0" /></clipPath><clipPath
       clipPathUnits="userSpaceOnUse"
       id="clipPath90-2"><path
         d="M 0,432 576,432 576,0 0,0 0,432 Z"
         id="path92-8"
         inkscape:connector-curvature="0" /></clipPath><clipPath
       clipPathUnits="userSpaceOnUse"
       id="clipPath98-9"><path
         d="m 451,225 31,0 0,-19 -31,0 0,19 z"
         id="path100-7"
         inkscape:connector-curvature="0" /></clipPath><clipPath
       clipPathUnits="userSpaceOnUse"
       id="clipPath114-3"><path
         d="m 451,207 58,0 0,-21 -58,0 0,21 z"
         id="path116-6"
         inkscape:connector-curvature="0" /></clipPath><clipPath
       clipPathUnits="userSpaceOnUse"
       id="clipPath64-1"><path
         d="M 0,432 576,432 576,0 0,0 0,432 Z"
         id="path66-2"
         inkscape:connector-curvature="0" /></clipPath><clipPath
       clipPathUnits="userSpaceOnUse"
       id="clipPath72-9"><path
         d="m 455,221 50,0 0,-2 -50,0 0,2 z"
         id="path74-3"
         inkscape:connector-curvature="0" /></clipPath><clipPath
       clipPathUnits="userSpaceOnUse"
       id="clipPath24-1"><path
         d="M 0,432 576,432 576,0 0,0 0,432 Z"
         id="path26-9"
         inkscape:connector-curvature="0" /></clipPath><clipPath
       clipPathUnits="userSpaceOnUse"
       id="clipPath32-4"><path
         d="m 455,211 20,0 0,-20 -20,0 0,20 z"
         id="path34-7"
         inkscape:connector-curvature="0" /></clipPath><clipPath
       clipPathUnits="userSpaceOnUse"
       id="clipPath48-8"><path
         d="m 458,208 11,0 0,-13 -11,0 0,13 z"
         id="path50-4"
         inkscape:connector-curvature="0" /></clipPath></defs><sodipodi:namedview
     pagecolor="#ffffff"
     bordercolor="#666666"
     borderopacity="1"
     objecttolerance="10"
     gridtolerance="10"
     guidetolerance="10"
     inkscape:pageopacity="0"
     inkscape:pageshadow="2"
     inkscape:window-width="1366"
     inkscape:window-height="716"
     id="namedview4"
     showgrid="false"
     fit-margin-top="10"
     fit-margin-left="10"
     fit-margin-right="10"
     fit-margin-bottom="10"
     inkscape:zoom="2.4305556"
     inkscape:cx="25.218853"
     inkscape:cy="16.657392"
     inkscape:window-x="0"
     inkscape:window-y="0"
     inkscape:window-maximized="1"
     inkscape:current-layer="g10" /><g
     id="g10"
     inkscape:groupmode="layer"
     inkscape:label="radio icons"
     transform="matrix(1.25,0,0,-1.25,-312.5,318.50911)"><path
       d="m 260,188.00729 56,0 0,36 -56,0 0,-36 z"
       style="fill:#43b5dd;fill-opacity:1;fill-rule:nonzero;stroke:none"
       id="path18"
       inkscape:connector-curvature="0" /><g
       transform="translate(-192,0.00728785)"
       id="g20"><g
         id="g22"
         clip-path="url(#clipPath24-1)"><g
           id="g28"><g
             id="g30" /><g
             id="g36"><g
               clip-path="url(#clipPath32-4)"
               id="g38"
               style="opacity:0.60000598"><g
                 transform="translate(465,211)"
                 id="g40"><path
                   d="m 0,0 c -5.522,0 -10,-4.478 -10,-10 0,-5.522 4.478,-10 10,-10 5.522,0 10,4.478 10,10 C 10,-4.478 5.522,0 0,0"
                   style="fill:#ffffff;fill-opacity:1;fill-rule:nonzero;stroke:none"
                   id="path42"
                   inkscape:connector-curvature="0" /></g></g></g></g><g
           id="g44"><g
             id="g46" /><g
             id="g52"><g
               clip-path="url(#clipPath48-8)"
               id="g54"
               style="opacity:0.50196802"><path
                 d="m 464,202 -2,0 0,2 2,0 0,-2 z m 0,-3 -2,0 0,2 2,0 0,-2 z m 4.5,6 -3.5,0 0,2.5 c 0,0.276 -0.224,0.5 -0.5,0.5 -0.276,0 -0.5,-0.224 -0.5,-0.5 l 0,-2.5 -2,0 0,1.5 c 0,0.276 -0.224,0.5 -0.5,0.5 -0.276,0 -0.5,-0.224 -0.5,-0.5 l 0,-1.5 -1.5,0 c -0.276,0 -0.5,-0.224 -0.5,-0.5 0,-0.276 0.224,-0.5 0.5,-0.5 l 1.5,0 0,-2 -2.5,0 c -0.276,0 -0.5,-0.224 -0.5,-0.5 0,-0.276 0.224,-0.5 0.5,-0.5 l 2.5,0 0,-2 -1.5,0 c -0.276,0 -0.5,-0.224 -0.5,-0.5 0,-0.276 0.224,-0.5 0.5,-0.5 l 1.5,0 0,-2 -0.5,0 c -0.276,0 -0.5,-0.224 -0.5,-0.5 0,-0.276 0.224,-0.5 0.5,-0.5 l 3,0 c 0.276,0 0.5,0.224 0.5,0.5 0,0.276 -0.224,0.5 -0.5,0.5 l -1.5,0 0,2 2,0 0,-0.5 c 0,-0.276 0.224,-0.5 0.5,-0.5 0.276,0 0.5,0.224 0.5,0.5 l 0,0.5 2.5,0 c 0.276,0 0.5,0.224 0.5,0.5 0,0.276 -0.224,0.5 -0.5,0.5 l -2.5,0 0,2 1.5,0 c 0.276,0 0.5,0.224 0.5,0.5 0,0.276 -0.224,0.5 -0.5,0.5 l -1.5,0 0,2 3.5,0 c 0.276,0 0.5,0.224 0.5,0.5 0,0.276 -0.224,0.5 -0.5,0.5"
                 style="fill:#959595;fill-opacity:1;fill-rule:nonzero;stroke:none"
                 id="path56"
                 inkscape:connector-curvature="0" /></g></g></g></g></g><path
       d="m 264,216.00729 48,0 0,4 -48,0 0,-4 z"
       style="fill:#f2f0e7;fill-opacity:1;fill-rule:nonzero;stroke:none"
       id="path58"
       inkscape:connector-curvature="0" /><g
       transform="translate(-192,0.00728785)"
       id="g60"><g
         id="g62"
         clip-path="url(#clipPath64-1)"><g
           id="g68"><g
             id="g70" /><g
             id="g76"><g
               clip-path="url(#clipPath72-9)"
               id="g78"
               style="opacity:0.50196802"><g
                 transform="translate(504,221)"
                 id="g80"><path
                   d="m 0,0 -48,0 c -0.553,0 -1,-0.447 -1,-1 0,-0.553 0.447,-1 1,-1 l 48,0 c 0.553,0 1,0.447 1,1 0,0.553 -0.447,1 -1,1"
                   style="fill:#959595;fill-opacity:1;fill-rule:nonzero;stroke:none"
                   id="path82"
                   inkscape:connector-curvature="0" /></g></g></g></g></g></g><path
       d="m 296,217.00729 1,0 0,2 -1,0 0,-2 z m -6,0 1,0 0,2 -1,0 0,-2 z m 3,0 1,0 0,2 -1,0 0,-2 z m 15,0 1,0 0,2 -1,0 0,-2 z m -9,0 1,0 0,2 -1,0 0,-2 z m 3,0 1,0 0,2 -1,0 0,-2 z m 3,0 1,0 0,2 -1,0 0,-2 z m -36,0 1,0 0,2 -1,0 0,-2 z m 18,0 1,0 0,2 -1,0 0,-2 z m -21,0 1,0 0,2 -1,0 0,-2 z m 6,0 1,0 0,2 -1,0 0,-2 z m 12,0 1,0 0,2 -1,0 0,-2 z m -3,0 1,0 0,2 -1,0 0,-2 z m -3,0 1,0 0,2 -1,0 0,-2 z"
       style="fill:#c0c2c7;fill-opacity:1;fill-rule:nonzero;stroke:none"
       id="path84"
       inkscape:connector-curvature="0" /><g
       transform="translate(-192,0.00728785)"
       id="g86"><g
         id="g88"
         clip-path="url(#clipPath90-2)"><g
           id="g94"><g
             id="g96" /><g
             id="g102"><g
               clip-path="url(#clipPath98-9)"
               id="g104"
               style="opacity:0.50196802"><g
                 transform="translate(481,225)"
                 id="g106"><path
                   d="m 0,0 -29,0 c -0.553,0 -1,-0.447 -1,-1 l 0,-17 c 0,-0.553 0.447,-1 1,-1 0.553,0 1,0.447 1,1 l 0,16 28,0 c 0.553,0 1,0.447 1,1 0,0.553 -0.447,1 -1,1"
                   style="fill:#ffffff;fill-opacity:1;fill-rule:nonzero;stroke:none"
                   id="path108"
                   inkscape:connector-curvature="0" /></g></g></g></g><g
           id="g110"><g
             id="g112" /><g
             id="g118"><g
               clip-path="url(#clipPath114-3)"
               id="g120"
               style="opacity:0.50196802"><g
                 transform="translate(508,207)"
                 id="g122"><path
                   d="m 0,0 c -0.553,0 -1,-0.447 -1,-1 l 0,-17 -55,0 c -0.553,0 -1,-0.447 -1,-1 l 0,-1 c 0,-0.553 0.447,-1 1,-1 l 56,0 c 0.553,0 1,0.447 1,1 l 0,1 0,18 C 1,-0.447 0.553,0 0,0"
                   style="fill:#959595;fill-opacity:1;fill-rule:nonzero;stroke:none"
                   id="path124"
                   inkscape:connector-curvature="0" /></g></g></g></g></g></g><path
       d="m 275,216.00729 1,0 0,4 -1,0 0,-4 z"
       style="fill:#dc4126;fill-opacity:1;fill-rule:nonzero;stroke:none"
       id="path126"
       inkscape:connector-curvature="0" /><g
       transform="translate(-192,0.00728785)"
       id="g128"><g
         id="g130"
         clip-path="url(#clipPath132-2)"><g
           id="g136"
           transform="translate(501.8945,243.3555)"><path
             d="M 0,0 -0.842,1.977 C -1.074,2.522 -1.705,2.776 -2.25,2.544 L -4.227,1.702 C -4.772,1.47 -5.026,0.839 -4.794,0.294 l 0.842,-1.977 c 0.232,-0.545 0.863,-0.799 1.408,-0.567 l 1.977,0.842 C -0.022,-1.176 0.232,-0.545 0,0"
             style="fill:#616161;fill-opacity:1;fill-rule:nonzero;stroke:none"
             id="path138"
             inkscape:connector-curvature="0" /></g><g
           id="g140"
           transform="translate(498,206)"><path
             d="m 0,0 c -4.418,0 -8,-3.582 -8,-8 0,-4.418 3.582,-8 8,-8 4.418,0 8,3.582 8,8 0,4.418 -3.582,8 -8,8"
             style="fill:#616161;fill-opacity:1;fill-rule:nonzero;stroke:none"
             id="path142"
             inkscape:connector-curvature="0" /></g><g
           id="g144"
           transform="translate(498,204)"><path
             d="m 0,0 c -3.313,0 -6,-2.687 -6,-6 0,-3.313 2.687,-6 6,-6 3.313,0 6,2.687 6,6 0,3.313 -2.687,6 -6,6"
             style="fill:#cacdd3;fill-opacity:1;fill-rule:nonzero;stroke:none"
             id="path146"
             inkscape:connector-curvature="0" /></g><g
           id="g148"><g
             id="g150" /><g
             id="g156"><g
               clip-path="url(#clipPath152-2)"
               id="g158"
               style="opacity:0.50196802"><g
                 transform="translate(498,198)"
                 id="g160"><path
                   d="m 0,0 2.004,-6.012 c 1.893,0.632 3.376,2.115 4.008,4.008 L 0,0 Z M -5.667,1.889 0,0 -1.889,5.667 C -3.674,5.071 -5.071,3.674 -5.667,1.889"
                   style="fill:#959595;fill-opacity:1;fill-rule:nonzero;stroke:none"
                   id="path162"
                   inkscape:connector-curvature="0" /></g></g></g></g><g
           id="g164"><g
             id="g166" /><g
             id="g172"><g
               clip-path="url(#clipPath168-7)"
               id="g174"
               style="opacity:0.50196802"><g
                 transform="translate(498.1924,197.9355)"
                 id="g176"><path
                   d="m 0,0 -0.175,0.011 0.056,-0.166 3.365,-5.097 c 0.529,0.343 1.001,0.762 1.404,1.242 0.054,0.066 0.112,0.127 0.162,0.194 0.052,0.066 0.097,0.138 0.146,0.207 0.359,0.514 0.642,1.078 0.836,1.678 L 0,0 Z M -4.257,4.415 C -4.338,4.341 -4.419,4.267 -4.496,4.188 -4.774,3.897 -5.031,3.584 -5.247,3.241 -5.257,3.225 -5.269,3.209 -5.278,3.193 -5.516,2.807 -5.713,2.393 -5.859,1.953 L -0.284,0.095 -3.521,4.998 C -3.782,4.822 -4.028,4.629 -4.257,4.415"
                   style="fill:#959595;fill-opacity:1;fill-rule:nonzero;stroke:none"
                   id="path178"
                   inkscape:connector-curvature="0" /></g></g></g></g><g
           id="g180"><g
             id="g182" /><g
             id="g188"><g
               clip-path="url(#clipPath184-9)"
               id="g190"
               style="opacity:0.50196802"><g
                 transform="translate(495.8779,191.9893)"
                 id="g192"><path
                   d="M 0,0 1.945,5.834 -3.89,3.889 C -3.276,2.052 -1.837,0.612 0,0 M 4.008,12.022 1.945,5.834 8.134,7.896 c -0.651,1.95 -2.177,3.476 -4.126,4.126"
                   style="fill:#ffffff;fill-opacity:1;fill-rule:nonzero;stroke:none"
                   id="path194"
                   inkscape:connector-curvature="0" /></g></g></g></g><g
           id="g196"
           transform="translate(500.1299,203.9141)"><path
             d="m 0,0 c -0.082,0.03 -0.162,0.067 -0.245,0.095 l -2.041,-6.125 0.018,-0.048 0.042,0.014 3.337,5.528 C 0.763,-0.322 0.389,-0.147 0,0 m -4.248,-11.914 1.861,5.584 -3.046,-5.045 c 0.377,-0.228 0.778,-0.398 1.185,-0.539"
             style="fill:#ffffff;fill-opacity:1;fill-rule:nonzero;stroke:none"
             id="path198"
             inkscape:connector-curvature="0" /></g><g
           id="g200"
           transform="translate(495.5537,203.4375)"><path
             d="m 0,0 -0.866,-0.5 3,-5.196 L 3,-5.196 0,0 Z"
             style="fill:#dc4126;fill-opacity:1;fill-rule:nonzero;stroke:none"
             id="path202"
             inkscape:connector-curvature="0" /></g><path
           d="m 456,220 48,0 0,-4 -48,0 0,4 z m -1,-6 50,0 c 0.553,0 1,0.447 1,1 l 0,6 c 0,0.553 -0.447,1 -1,1 l -50,0 c -0.553,0 -1,-0.447 -1,-1 l 0,-6 c 0,-0.553 0.447,-1 1,-1 m 28,-22 c -0.947,0 -2,1.054 -2,2 0,0.947 1.053,2 2,2 0.946,0 2,-1.053 2,-2 0,-0.946 -1.054,-2 -2,-2 m 0,6 c -2.209,0 -4,-1.791 -4,-4 0,-2.209 1.791,-4 4,-4 2.209,0 4,1.791 4,4 0,2.209 -1.791,4 -4,4 m 25,-10 -56,0 0,36 56,0 0,-36 z m -49,40 c 1.104,0 2,-0.896 2,-2 l -4,0 c 0,1.104 0.896,2 2,2 m 50,-2 -46,0 c 0,0.435 -0.087,0.845 -0.215,1.236 l 37.581,14.83 c 0.512,0.202 0.764,0.783 0.563,1.296 -0.201,0.514 -0.78,0.767 -1.292,0.566 L 461.682,228.949 C 460.971,229.596 460.036,230 459,230 c -2.209,0 -4,-1.791 -4,-4 l -4,0 c -0.553,0 -1,-0.447 -1,-1 l 0,-38 c 0,-0.552 0.447,-1 1,-1 l 58,0 c 0.552,0 1,0.448 1,1 l 0,38 c 0,0.553 -0.448,1 -1,1 m -44,-16 c 4.86,0 9,-4.14 9,-9 0,-4.86 -4.14,-9 -9,-9 -4.86,0 -9,4.14 -9,9 0,4.86 4.14,9 9,9 m 0,-20 c 6.075,0 11,4.925 11,11 0,6.075 -4.925,11 -11,11 -6.075,0 -11,-4.925 -11,-11 0,-6.075 4.925,-11 11,-11"
           style="fill:#616161;fill-opacity:1;fill-rule:nonzero;stroke:none"
           id="path204"
           inkscape:connector-curvature="0" /><g
           id="g206"
           transform="translate(483,196)"><path
             d="m 0,0 c -1.104,0 -2,-0.896 -2,-2 0,-1.104 0.896,-2 2,-2 1.104,0 2,0.896 2,2 0,1.104 -0.896,2 -2,2"
             style="fill:#5f768a;fill-opacity:1;fill-rule:nonzero;stroke:none"
             id="path208"
             inkscape:connector-curvature="0" /></g></g></g></g></svg>