<?xml version="1.0" encoding="iso-8859-1"?>
<!-- Generator: Adobe Illustrator 19.0.0, SVG Export Plug-In . SVG Version: 6.00 Build 0)  -->
<svg version="1.1" id="Layer_1" xmlns="http://www.w3.org/2000/svg" xmlns:xlink="http://www.w3.org/1999/xlink" x="0px" y="0px"
	 viewBox="0 0 504 504" style="enable-background:new 0 0 504 504;" xml:space="preserve">
<circle style="fill:#90DFAA;" cx="252" cy="252" r="252"/>
<path style="fill:#2B3B4E;" d="M215.6,74c-3-1.8-7-1-9,1.9s-1.5,6.9,1.2,9.1l120.8,91.7l13.9-19.7L215.6,74z"/>
<path style="fill:#324A5E;" d="M389.4,152.7h-279c-6.9,0-12.4,5.6-12.4,12.4v194.1c0,6.9,5.6,12.4,12.4,12.4h279
	c6.9,0,12.4-5.6,12.4-12.4v-194C401.8,158.3,396.2,152.7,389.4,152.7z"/>
<rect x="128.3" y="181.3" style="fill:#E6E9EE;" width="243.2" height="53.3"/>
<rect x="175.9" y="200.8" style="fill:#FF7058;" width="7.9" height="33.9"/>
<g>
	<path style="fill:#FFD05B;" d="M128.3,302.6c0,1.2,0.1,2.5,0.2,3.7h90.9c0.1-1.2,0.2-2.4,0.2-3.7c0-1.2-0.1-2.5-0.2-3.7h-90.9
		C128.3,300.2,128.3,301.4,128.3,302.6z"/>
	<path style="fill:#FFD05B;" d="M129.6,291.8h88.6c-0.6-2.5-1.4-5-2.5-7.4H132C131,286.7,130.2,289.2,129.6,291.8z"/>
	<path style="fill:#FFD05B;" d="M142.2,335.4h63.4c2.3-2.2,4.4-4.7,6.2-7.4H136C137.8,330.7,139.9,333.2,142.2,335.4z"/>
	<path style="fill:#FFD05B;" d="M132.1,320.9h83.7c1-2.4,1.8-4.8,2.5-7.4h-88.6C130.2,316.1,131,318.5,132.1,320.9z"/>
	<path style="fill:#FFD05B;" d="M173.9,348.3c8,0,15.5-2.1,22-5.7h-44C158.4,346.2,165.9,348.3,173.9,348.3z"/>
	<path style="fill:#FFD05B;" d="M136,277.2h75.8c-1.8-2.7-3.9-5.1-6.2-7.4h-63.4C139.9,272.1,137.8,274.5,136,277.2z"/>
	<path style="fill:#FFD05B;" d="M173.9,257c-8,0-15.5,2.1-22,5.7h44C189.4,259,181.9,257,173.9,257z"/>
</g>
<circle style="fill:#E6E9EE;" cx="347.3" cy="291.1" r="24.1"/>
<rect x="344.014" y="263.905" transform="matrix(-0.7071 -0.7071 0.7071 -0.7071 387.1459 742.5706)" style="fill:#CED5E0;" width="6.7" height="54.399"/>
<g>
</g>
<g>
</g>
<g>
</g>
<g>
</g>
<g>
</g>
<g>
</g>
<g>
</g>
<g>
</g>
<g>
</g>
<g>
</g>
<g>
</g>
<g>
</g>
<g>
</g>
<g>
</g>
<g>
</g>
</svg>
