<?xml version="1.0" encoding="iso-8859-1"?>
<!-- Generator: Adobe Illustrator 19.0.0, SVG Export Plug-In . SVG Version: 6.00 Build 0)  -->
<svg version="1.1" id="Layer_1" xmlns="http://www.w3.org/2000/svg" xmlns:xlink="http://www.w3.org/1999/xlink" x="0px" y="0px"
	 viewBox="0 0 512 512" style="enable-background:new 0 0 512 512;" xml:space="preserve">
<circle style="fill:#FF7F4F;" cx="256" cy="256" r="256"/>
<path style="fill:#FF5419;" d="M425.815,174.916L89.398,368.602L231.636,510.84C239.657,511.597,247.78,512,256,512
	c139.729,0,253.297-111.95,255.938-251.049L425.815,174.916z"/>
<path style="fill:#273B7A;" d="M398.229,209.455c-3.036,0-6.041-1.329-8.083-3.882L276.368,63.35
	c-3.567-4.461-2.844-10.969,1.617-14.539c4.463-3.567,10.969-2.843,14.539,1.617L406.302,192.65
	c3.567,4.461,2.844,10.969-1.617,14.539C402.777,208.713,400.494,209.455,398.229,209.455z"/>
<path id="SVGCleanerId_0" style="fill:#FFEDB5;" d="M118.805,369.778h274.389c18.485,0,33.473-14.986,33.473-33.473V204.138
	c0-18.485-14.986-33.471-33.473-33.471H118.805c-18.485,0-33.471,14.986-33.471,33.471v132.167
	C85.333,354.792,100.319,369.778,118.805,369.778z"/>
<g>
	<path id="SVGCleanerId_0_1_" style="fill:#FFEDB5;" d="M118.805,369.778h274.389c18.485,0,33.473-14.986,33.473-33.473V204.138
		c0-18.485-14.986-33.471-33.473-33.471H118.805c-18.485,0-33.471,14.986-33.471,33.471v132.167
		C85.333,354.792,100.319,369.778,118.805,369.778z"/>
</g>
<circle style="fill:#386895;" cx="156.444" cy="270.222" r="42.667"/>
<path style="fill:#FDE085;" d="M393.194,170.667H255.424v199.111h137.769c18.485,0,33.473-14.986,33.473-33.473V204.138
	C426.667,185.653,411.681,170.667,393.194,170.667z"/>
<path style="fill:#386895;" d="M393.194,380.121H118.805c-24.161,0-43.815-19.654-43.815-43.815V204.138
	c0-24.161,19.654-43.815,43.815-43.815h274.389c24.161,0,43.816,19.654,43.816,43.815v132.168
	C437.01,360.467,417.354,380.121,393.194,380.121z M118.805,181.01c-12.752,0-23.128,10.376-23.128,23.128v132.168
	c0,12.752,10.376,23.128,23.128,23.128h274.389c12.753,0,23.13-10.376,23.13-23.128V204.138c0-12.752-10.376-23.128-23.13-23.128
	H118.805z"/>
<circle style="fill:#273B7A;" cx="355.556" cy="270.222" r="42.667"/>
<g>
	<rect x="219.798" y="249.104" style="fill:#E03A00;" width="72.404" height="13.791"/>
	<rect x="219.798" y="277.549" style="fill:#E03A00;" width="72.404" height="13.791"/>
	<rect x="219.798" y="305.993" style="fill:#E03A00;" width="72.404" height="13.791"/>
</g>
<g>
	<rect x="255.431" y="249.104" style="fill:#940030;" width="36.776" height="13.791"/>
	<rect x="255.431" y="277.549" style="fill:#940030;" width="36.776" height="13.791"/>
	<rect x="255.431" y="305.993" style="fill:#940030;" width="36.776" height="13.791"/>
</g>
<path style="fill:#273B7A;" d="M393.194,160.323H255.426v20.687h137.768c12.753,0,23.13,10.376,23.13,23.128v132.168
	c0,12.752-10.376,23.128-23.13,23.128H255.426v20.687h137.768c24.161,0,43.816-19.654,43.816-43.815V204.138
	C437.01,179.977,417.354,160.323,393.194,160.323z"/>
<g>
</g>
<g>
</g>
<g>
</g>
<g>
</g>
<g>
</g>
<g>
</g>
<g>
</g>
<g>
</g>
<g>
</g>
<g>
</g>
<g>
</g>
<g>
</g>
<g>
</g>
<g>
</g>
<g>
</g>
</svg>
