<?xml version="1.0" standalone="no"?>
<!DOCTYPE svg PUBLIC "-//W3C//DTD SVG 20010904//EN"
 "http://www.w3.org/TR/2001/REC-SVG-20010904/DTD/svg10.dtd">
<svg version="1.0" xmlns="http://www.w3.org/2000/svg"
 width="16.000000pt" height="16.000000pt" viewBox="0 0 16.000000 16.000000"
 preserveAspectRatio="xMidYMid meet">
<metadata>
Created by potrace 1.11, written by Peter Selinger 2001-2013
</metadata>
<g transform="translate(0.000000,16.000000) scale(0.002286,-0.002286)"
fill="#000000" stroke="none">
<path d="M2914 5980 c-12 -4 -31 -21 -44 -37 -27 -35 -22 -86 12 -119 13 -12
295 -228 628 -480 l605 -459 -1320 -5 c-978 -4 -1325 -8 -1340 -17 -31 -18
-73 -65 -84 -96 -8 -20 -11 -457 -11 -1407 0 -950 3 -1387 11 -1407 14 -38 57
-83 96 -99 27 -12 353 -14 2009 -14 l1976 0 40 22 c22 13 51 41 64 64 l24 41
0 1386 c0 955 -3 1394 -11 1414 -14 38 -57 83 -96 99 -26 11 -113 14 -419 14
l-387 0 -821 537 c-452 296 -837 545 -856 555 -38 20 -45 21 -76 8z m2246
-1870 l0 -370 -1305 0 -1305 0 0 235 0 235 -50 0 -50 0 0 -235 0 -235 -335 0
-335 0 0 370 0 370 1690 0 1690 0 0 -370z m-2617 -695 c38 -8 92 -25 120 -39
l52 -24 -300 0 -300 0 52 24 c105 50 254 65 376 39z m2425 -161 c55 -27 63
-29 77 -15 14 14 18 12 47 -17 30 -29 31 -33 16 -48 -14 -15 -14 -19 7 -57 35
-63 48 -145 36 -213 -42 -227 -279 -345 -482 -240 -43 22 -48 23 -63 8 -15
-15 -19 -14 -48 16 -29 29 -31 33 -17 47 14 14 12 21 -14 74 -54 110 -47 223
20 329 88 140 271 190 421 116z m-2069 -51 l41 -48 -259 -3 c-143 -1 -379 -1
-525 0 l-266 3 41 48 41 47 443 0 443 0 41 -47z m113 -200 l15 -48 -303 -3
c-166 -1 -442 -1 -612 0 l-309 3 15 48 15 47 582 0 582 0 15 -47z m38 -203 l0
-50 -632 2 -633 3 -3 24 c-2 12 -1 34 2 47 l6 24 630 0 630 0 0 -50z m-38
-207 l-18 -48 -577 -3 -578 -2 -14 35 c-30 71 -81 65 595 65 l610 0 -18 -47z
m-82 -159 c0 -4 -16 -27 -36 -50 l-35 -44 -443 0 -444 0 -36 44 c-20 24 -36
47 -36 50 0 3 232 6 515 6 283 0 515 -3 515 -6z m-262 -215 c-131 -68 -375
-68 -506 0 l-37 20 290 0 290 0 -37 -20z"/>
</g>
</svg>
